<?xml version="1.0" standalone="no"?><!DOCTYPE svg PUBLIC "-//W3C//DTD SVG 1.1//EN" "http://www.w3.org/Graphics/SVG/1.1/DTD/svg11.dtd"><svg t="1593705746782" class="icon" viewBox="0 0 1024 1024" version="1.1" xmlns="http://www.w3.org/2000/svg" p-id="2017" xmlns:xlink="http://www.w3.org/1999/xlink" width="200" height="200"><defs><style type="text/css"></style></defs><path d="M512 74.666667C270.848 74.666667 74.666667 270.848 74.666667 512S270.848 949.333333 512 949.333333 949.333333 753.152 949.333333 512 753.152 74.666667 512 74.666667zM432.128 690.24l52.650667 91.157333c5.696 9.877333 16.32 16 27.712 16s22.016-6.122667 27.712-16l52.458667-90.858667c69.184 15.04 129.472 49.024 171.456 96.512C695.04 850.517333 605.909333 885.333333 512 885.333333c-94.122667 0-183.424-34.965333-252.565333-98.645333C301.717333 739.029333 362.432 705.088 432.128 690.24zM576.384 622.997333c-11.477333 0-22.144 6.122667-27.84 15.978667l-36.053333 62.442667-36.202667-62.677333c-6.442667-11.157333-18.773333-17.578667-32.512-15.616-89.429333 13.610667-171.648 55.701333-227.733333 116.202667C166.058667 674.304 138.666667 594.090667 138.666667 512c0-205.845333 167.488-373.333333 373.333333-373.333333S885.333333 306.154667 885.333333 512c0 82.304-27.52 162.709333-77.738667 227.776-55.744-60.352-137.493333-102.528-226.517333-116.437333C579.52 623.104 577.941333 622.997333 576.384 622.997333z" p-id="2018"></path><path d="M512 230.144c-90.218667 0-163.626667 73.386667-163.626667 163.605333 0 43.904 17.237333 97.024 44.992 138.624 32.64 48.938667 74.773333 75.904 118.634667 75.904 94.933333 0 163.648-128.128 163.648-214.528C675.648 303.530667 602.218667 230.144 512 230.144zM512 544.277333c-48.106667 0-99.626667-88.341333-99.626667-150.528 0-54.933333 44.693333-99.605333 99.626667-99.605333s99.648 44.693333 99.648 99.605333C611.648 455.936 560.106667 544.277333 512 544.277333z" p-id="2019"></path></svg>